<svg width="155" height="67" viewBox="0 0 155 67" fill="none" xmlns="http://www.w3.org/2000/svg">
    <mask id="mask0_3_24" style="mask-type:luminance" maskUnits="userSpaceOnUse" x="0" y="0" width="33" height="67">
        <path d="M32.2272 0H0V67H32.2272V0Z" fill="white"/>
    </mask>
    <g mask="url(#mask0_3_24)">
        <path fill-rule="evenodd" clip-rule="evenodd" d="M19.702 0L25.5918 9.97556C25.5918 9.97556 23.4297 18.9833 12.5447 32.2344C1.65966 45.4856 5.46198 55.8334 5.46198 55.8334C5.46198 55.8334 -8.03252 43.9222 7.40038 25.0133C16.4216 14.07 19.702 0 19.702 0ZM27.903 14.1444L32.2272 22.6311C32.2272 22.6311 30.5125 31.1178 19.702 44.3687C8.8915 57.62 13.9612 67 13.9612 67C13.9612 67 -0.949772 55.4613 14.4831 36.5522C23.5043 25.6089 27.903 14.1444 27.903 14.1444Z" fill="black"/>
    </g>
    <path d="M54.7495 33.0538C53.1062 33.0538 51.5622 32.7305 50.1183 32.0841C48.6988 31.4377 47.4413 30.555 46.3459 29.4361C45.275 28.3173 44.4286 27.0244 43.8059 25.5575C43.2084 24.0657 42.9094 22.4869 42.9094 20.821C42.9094 19.0557 43.2208 17.4023 43.8435 15.8608C44.4658 14.2944 45.3374 12.9269 46.458 11.7584C47.5782 10.5649 48.8732 9.63256 50.3424 8.96125C51.8363 8.28994 53.4424 7.95427 55.1605 7.95427C56.9285 7.95427 59.8792 8.51372 64.0126 9.63256L64.1619 14.2571C64.1619 14.6301 63.9005 14.8165 63.3775 14.8165C63.1285 14.8165 62.9668 14.7544 62.892 14.6301C62.2197 11.2238 59.68 9.52067 55.2725 9.52067C53.6292 9.52067 52.1477 10.0055 50.8278 10.9752C49.508 11.9448 48.4622 13.2502 47.6903 14.8912C46.9186 16.5321 46.5325 18.3471 46.5325 20.3362C46.5325 21.7037 46.769 23.0587 47.242 24.4013C47.7403 25.7191 48.4126 26.9125 49.2591 27.9816C50.1307 29.0259 51.1516 29.8713 52.3218 30.5177C53.5172 31.1393 54.7995 31.4501 56.169 31.4501C58.3849 31.4501 60.0037 31.1766 61.0246 30.6296C61.1988 30.555 61.286 30.3685 61.286 30.0702L61.2487 27.012V26.7509C61.2487 25.1597 61.1491 24.0905 60.9498 23.5436C60.8998 23.3695 60.6885 23.2328 60.3147 23.1333C59.9413 23.009 59.5431 22.9095 59.1197 22.835C58.6963 22.7604 58.3477 22.7231 58.0739 22.7231C57.9743 22.7231 57.9243 22.5615 57.9243 22.2382C57.9243 21.9399 57.9743 21.741 58.0739 21.6415L62.9668 21.828L67.0005 21.6415C67.0505 21.8404 67.0753 22.0145 67.0753 22.1637C67.0753 22.5366 67.0253 22.7231 66.9257 22.7231C66.8264 22.7231 66.6271 22.7604 66.3282 22.835C66.0544 22.9095 65.7555 22.9966 65.4317 23.096C65.1331 23.1955 64.909 23.2949 64.7594 23.3944C64.5104 23.5684 64.386 24.4013 64.386 25.8932C64.386 26.1418 64.386 26.4153 64.386 26.7136C64.4108 26.9871 64.436 27.2731 64.4608 27.5714L64.498 28.5784C64.498 29.0757 64.5853 29.5108 64.7594 29.8837C64.9338 30.2567 65.0211 30.5053 65.0211 30.6296C65.0211 30.8285 64.7097 31.0523 64.0871 31.3009C63.6888 31.4998 63.3526 31.6366 63.0789 31.7112C62.8048 31.7857 62.6182 31.8479 62.5186 31.8976C62.3941 31.9473 62.12 32.0468 61.6966 32.196C61.2736 32.3203 60.925 32.4073 60.6509 32.457C59.9785 32.5814 59.3562 32.6933 58.7835 32.7927C58.2108 32.8673 57.6133 32.9295 56.9906 32.9792C56.3683 33.0289 55.6211 33.0538 54.7495 33.0538ZM91.876 33.0165C88.4147 33.0165 85.3895 31.2263 82.7998 27.646C82.6005 27.3725 82.3391 26.9996 82.0154 26.5271C81.7165 26.0548 81.1562 25.2218 80.3345 24.0284C79.9363 23.4565 79.5753 22.9841 79.2516 22.6112C78.9526 22.2134 78.5916 21.915 78.1682 21.7161C77.77 21.5172 77.2221 21.4178 76.525 21.4178C76.2509 21.4178 76.0267 21.455 75.8526 21.5296C75.7033 21.6042 75.6285 21.7783 75.6285 22.0518V27.5341C75.6285 29.1751 75.7282 30.2567 75.9271 30.7788C76.0267 30.9777 76.2633 31.1641 76.637 31.3382C77.0353 31.5122 77.4587 31.649 77.9069 31.7484C78.3551 31.823 78.6789 31.8603 78.8778 31.8603C78.9775 31.8603 79.0274 32.0344 79.0274 32.3825C79.0274 32.5565 79.0026 32.743 78.9526 32.9419C77.7076 32.8921 76.6743 32.8424 75.8526 32.7927C75.0558 32.743 74.4707 32.7305 74.097 32.7554L69.5402 32.9419C69.4658 32.8673 69.4282 32.6435 69.4282 32.2706C69.4282 31.9473 69.4658 31.7857 69.5402 31.7857C69.7895 31.7857 70.0881 31.7484 70.4367 31.6738C70.8104 31.5993 71.159 31.5122 71.4824 31.4128C71.8313 31.2885 72.0427 31.1517 72.1175 31.0025C72.292 30.729 72.3789 29.5605 72.3789 27.4968V13.3993C72.3789 12.6783 72.3541 12.0443 72.3044 11.4973C72.2792 10.9503 72.2172 10.5152 72.1175 10.192C72.0679 10.0428 71.8686 9.90605 71.52 9.78173C71.1962 9.65741 70.8353 9.55795 70.4367 9.48338C70.0633 9.40878 69.7643 9.37149 69.5402 9.37149C69.4409 9.37149 69.3909 9.22232 69.3909 8.92396C69.3909 8.60072 69.4409 8.3894 69.5402 8.28994L74.0225 8.36455C74.7445 8.3894 75.6285 8.37698 76.6743 8.32723C77.72 8.25266 78.5916 8.21534 79.2888 8.21534C80.6335 8.21534 81.9157 8.4764 83.1359 8.99853C84.381 9.52067 85.3895 10.2914 86.1611 11.3108C86.9579 12.3302 87.3565 13.5734 87.3565 15.0403C87.3565 16.0846 86.9579 17.1786 86.1611 18.3223C85.3895 19.466 84.331 20.3486 82.9867 20.9702C82.7374 21.0697 82.6629 21.194 82.7625 21.3431C83.9824 23.9289 85.4143 26.1169 87.0576 27.9071C89.448 30.5177 91.3902 31.823 92.8842 31.823C92.959 31.9722 92.9962 32.1463 92.9962 32.3451C92.9962 32.5689 92.959 32.7554 92.8842 32.9046C92.6352 32.9792 92.2991 33.0165 91.876 33.0165ZM78.8778 19.8141H79.8118C80.4094 19.8141 81.0193 19.6152 81.642 19.2173C82.2892 18.8195 82.8246 18.2601 83.248 17.5391C83.6962 16.818 83.9203 15.9851 83.9203 15.0403C83.9203 11.5843 82.1771 9.85634 78.6913 9.85634C77.5459 9.85634 76.6743 9.94334 76.0767 10.1174C75.8526 10.1671 75.7157 10.5774 75.6658 11.3481C75.6409 12.094 75.6285 13.0513 75.6285 14.2198V18.7325C75.6285 19.4535 76.7115 19.8141 78.8778 19.8141ZM94.1916 32.9419C94.092 32.8424 94.0423 32.656 94.0423 32.3825C94.0423 32.0344 94.092 31.8603 94.1916 31.8603C94.4157 31.8603 94.7146 31.8354 95.0881 31.7857C95.4615 31.7112 95.81 31.6117 96.1338 31.4874C96.4576 31.3631 96.6441 31.2387 96.6941 31.1144C96.7937 30.7663 96.8558 30.3188 96.881 29.7718C96.9306 29.2248 96.9554 28.566 96.9554 27.7952V13.3248C96.9554 12.554 96.9306 11.8951 96.881 11.3481C96.8558 10.7763 96.7937 10.3287 96.6941 10.0055C96.6441 9.85634 96.4576 9.73202 96.1338 9.63256C95.81 9.50824 95.4615 9.40878 95.0881 9.33421C94.7146 9.2596 94.4157 9.22232 94.1916 9.22232C94.092 9.22232 94.0423 9.06071 94.0423 8.73747C94.0423 8.43912 94.092 8.24023 94.1916 8.14077L98.6735 8.32723C98.8728 8.32723 99.3335 8.3148 100.055 8.28994C100.778 8.24023 101.761 8.19048 103.006 8.14077C103.056 8.33966 103.081 8.52615 103.081 8.70018C103.081 9.04828 103.031 9.22232 102.932 9.22232C102.782 9.22232 102.521 9.27203 102.147 9.37149C101.774 9.44609 101.425 9.54552 101.102 9.66984C100.778 9.7693 100.591 9.88119 100.541 10.0055C100.317 10.8509 100.205 12.007 100.205 13.4739V27.646C100.205 29.0881 100.317 30.2442 100.541 31.1144C100.591 31.2139 100.778 31.3258 101.102 31.4501C101.425 31.5744 101.774 31.6738 102.147 31.7484C102.521 31.823 102.782 31.8603 102.932 31.8603C103.031 31.8603 103.081 32.0468 103.081 32.4198C103.081 32.5689 103.056 32.743 103.006 32.9419C101.761 32.8921 100.778 32.8549 100.055 32.83C99.3335 32.7803 98.8728 32.7554 98.6735 32.7554L94.1916 32.9419ZM123.213 32.9792C121.918 32.9792 119.901 32.9419 117.162 32.8673C115.793 32.8176 114.548 32.7803 113.427 32.7554C112.306 32.7305 111.323 32.7305 110.476 32.7554L105.957 32.8673C105.882 32.7927 105.845 32.5938 105.845 32.2706C105.845 31.9473 105.882 31.7857 105.957 31.7857C106.206 31.7857 106.505 31.7484 106.853 31.6738C107.227 31.5993 107.576 31.5122 107.899 31.4128C108.248 31.2885 108.459 31.1517 108.534 31.0025C108.708 30.729 108.795 29.5605 108.795 27.4968V13.3993C108.795 11.7584 108.708 10.6271 108.534 10.0055C108.484 9.85634 108.298 9.73202 107.974 9.63256C107.65 9.50824 107.302 9.40878 106.928 9.33421C106.555 9.2596 106.256 9.22232 106.032 9.22232C105.932 9.22232 105.882 9.06071 105.882 8.73747C105.882 8.43912 105.932 8.24023 106.032 8.14077C106.256 8.14077 106.629 8.16562 107.152 8.21534C107.7 8.24023 108.285 8.27751 108.908 8.32723C109.53 8.35209 110.065 8.36455 110.514 8.36455C111.31 8.36455 112.107 8.33966 112.904 8.28994C113.701 8.21534 114.348 8.16562 114.846 8.14077C114.896 8.33966 114.921 8.52615 114.921 8.70018C114.921 9.04828 114.871 9.22232 114.772 9.22232C114.622 9.22232 114.361 9.27203 113.987 9.37149C113.614 9.44609 113.265 9.54552 112.942 9.66984C112.618 9.7693 112.431 9.88119 112.381 10.0055C112.157 10.8509 112.045 12.007 112.045 13.4739V27.5341C112.045 28.8519 112.157 29.9458 112.381 30.8161C112.456 31.0647 113.303 31.189 114.921 31.189H116.714C119.005 31.189 120.573 30.9777 121.42 30.555C121.793 30.3561 122.204 29.921 122.653 29.2497C123.126 28.5535 123.499 27.733 123.773 26.7882C123.823 26.639 123.997 26.5645 124.296 26.5645C124.769 26.5645 125.08 26.639 125.23 26.7882C125.155 26.9871 125.031 27.2979 124.856 27.7206C124.707 28.1184 124.558 28.5287 124.408 28.9513C124.259 29.374 124.134 29.7345 124.034 30.0329C123.885 30.4804 123.723 30.9901 123.549 31.562C123.375 32.1338 123.262 32.6062 123.213 32.9792ZM144.428 32.9792C143.133 32.9792 141.116 32.9419 138.377 32.8673C137.007 32.8176 135.762 32.7803 134.642 32.7554C133.521 32.7305 132.538 32.7305 131.691 32.7554L127.172 32.8673C127.097 32.7927 127.06 32.5938 127.06 32.2706C127.06 31.9473 127.097 31.7857 127.172 31.7857C127.421 31.7857 127.72 31.7484 128.068 31.6738C128.442 31.5993 128.79 31.5122 129.114 31.4128C129.463 31.2885 129.675 31.1517 129.749 31.0025C129.923 30.729 130.011 29.5605 130.011 27.4968V13.3993C130.011 11.7584 129.923 10.6271 129.749 10.0055C129.699 9.85634 129.512 9.73202 129.189 9.63256C128.865 9.50824 128.516 9.40878 128.143 9.33421C127.77 9.2596 127.471 9.22232 127.247 9.22232C127.147 9.22232 127.097 9.06071 127.097 8.73747C127.097 8.43912 127.147 8.24023 127.247 8.14077C127.471 8.14077 127.844 8.16562 128.367 8.21534C128.915 8.24023 129.5 8.27751 130.123 8.32723C130.745 8.35209 131.281 8.36455 131.729 8.36455C132.526 8.36455 133.322 8.33966 134.119 8.28994C134.916 8.21534 135.563 8.16562 136.061 8.14077C136.111 8.33966 136.136 8.52615 136.136 8.70018C136.136 9.04828 136.086 9.22232 135.987 9.22232C135.837 9.22232 135.576 9.27203 135.202 9.37149C134.829 9.44609 134.48 9.54552 134.156 9.66984C133.833 9.7693 133.646 9.88119 133.596 10.0055C133.372 10.8509 133.26 12.007 133.26 13.4739V27.5341C133.26 28.8519 133.372 29.9458 133.596 30.8161C133.671 31.0647 134.517 31.189 136.136 31.189H137.929C140.22 31.189 141.788 30.9777 142.635 30.555C143.009 30.3561 143.419 29.921 143.867 29.2497C144.341 28.5535 144.714 27.733 144.988 26.7882C145.038 26.639 145.212 26.5645 145.511 26.5645C145.984 26.5645 146.295 26.639 146.445 26.7882C146.37 26.9871 146.245 27.2979 146.071 27.7206C145.922 28.1184 145.772 28.5287 145.623 28.9513C145.473 29.374 145.349 29.7345 145.25 30.0329C145.1 30.4804 144.938 30.9901 144.764 31.562C144.59 32.1338 144.478 32.6062 144.428 32.9792Z" fill="black"/>
    <path d="M45.3418 58.6739C45.3092 58.6414 45.2928 58.5433 45.2928 58.3798C45.2928 58.2377 45.3092 58.1671 45.3418 58.1671C45.4512 58.1671 45.5823 58.1506 45.735 58.1178C45.8991 58.0853 46.0517 58.0471 46.194 58.0036C46.3466 57.949 46.4395 57.889 46.4724 57.8233C46.5486 57.7034 46.5868 57.1909 46.5868 56.286V50.1029C46.5868 49.7867 46.5761 49.5083 46.5543 49.2685C46.5432 49.0286 46.516 48.838 46.4724 48.6959C46.4503 48.6306 46.363 48.5706 46.2101 48.516C46.0681 48.4614 45.9098 48.4179 45.735 48.3854C45.5713 48.3526 45.4401 48.3361 45.3418 48.3361C45.2982 48.3361 45.2764 48.2708 45.2764 48.1398C45.2764 47.9981 45.2982 47.9053 45.3418 47.8618L47.3078 47.8946C47.4715 47.8946 47.6517 47.8946 47.8483 47.8946C48.0449 47.8836 48.2526 47.8728 48.471 47.8618C48.6894 47.8511 48.8967 47.8454 49.0933 47.8454C49.2899 47.8347 49.4647 47.829 49.6177 47.829C49.978 47.829 50.3437 47.8836 50.7151 47.9928C51.0865 48.1016 51.4415 48.2655 51.78 48.4835C52.1296 48.7016 52.408 49.0122 52.6154 49.4158C52.8338 49.8192 52.9432 50.2882 52.9432 50.8225C52.9432 51.1605 52.872 51.5203 52.7301 51.9022C52.5882 52.2838 52.3752 52.6436 52.0913 52.9816C51.8182 53.3089 51.4687 53.5759 51.0429 53.7832C50.6279 53.9903 50.1471 54.0941 49.6013 54.0941C48.9897 54.0941 48.5693 53.9414 48.3398 53.6358C48.2744 53.5598 48.2579 53.4342 48.2908 53.2596C48.3126 53.2054 48.3287 53.189 48.3398 53.2107C48.6783 53.3307 49.0443 53.3906 49.4372 53.3906C49.8086 53.3906 50.1418 53.2871 50.4367 53.0797C50.7423 52.8617 50.9828 52.5782 51.1573 52.2292C51.3432 51.8694 51.4358 51.4821 51.4358 51.0677C51.4358 50.2935 51.2667 49.6828 50.9282 49.236C50.5896 48.7777 50.0653 48.5489 49.3553 48.5489C48.8531 48.5489 48.471 48.5871 48.2086 48.6634C48.1103 48.6742 48.0503 48.8433 48.0285 49.1703C48.0177 49.4976 48.012 49.9284 48.012 50.4627V56.3021C48.012 57.022 48.056 57.4964 48.1432 57.7252C48.1868 57.8126 48.2908 57.8944 48.4545 57.9707C48.6293 58.0471 48.8149 58.1071 49.0115 58.1506C49.2081 58.1835 49.35 58.1995 49.4372 58.1995C49.4812 58.1995 49.503 58.2759 49.503 58.4287C49.503 58.5051 49.4919 58.5868 49.4701 58.6739C48.9242 58.6521 48.471 58.6361 48.1103 58.625C47.7611 58.6032 47.5044 58.5922 47.3403 58.5922L45.3418 58.6739ZM53.1233 58.6739C53.0797 58.6304 53.0576 58.5486 53.0576 58.4287C53.0576 58.2759 53.0797 58.1995 53.1233 58.1995C53.2542 58.1995 53.4236 58.1724 53.6309 58.1178C53.8386 58.0635 53.9805 57.9872 54.057 57.889C54.1771 57.7362 54.2972 57.5346 54.4173 57.2837C54.5485 57.0327 54.6851 56.7222 54.827 56.3514L57.6774 49.0396C57.7428 48.8758 57.781 48.7616 57.7921 48.6959C57.8139 48.6306 57.8304 48.576 57.8411 48.5325C57.8629 48.4778 57.9011 48.3907 57.9558 48.2708C58.0323 48.1181 58.1088 47.9981 58.1853 47.911C58.2618 47.8236 58.3873 47.78 58.5621 47.78L58.7094 47.829L61.9858 56.4659C62.0841 56.7165 62.1714 56.9403 62.2479 57.1366C62.3351 57.3329 62.4062 57.5017 62.4609 57.6435C62.5045 57.7527 62.5974 57.8508 62.7394 57.9379C62.8923 58.0143 63.045 58.0796 63.198 58.1342C63.3617 58.1778 63.4875 58.1995 63.5748 58.1995C63.6184 58.1995 63.6402 58.3034 63.6402 58.5104C63.6402 58.5322 63.6348 58.5597 63.6241 58.5922C63.6241 58.6139 63.6184 58.6414 63.6076 58.6739C63.0614 58.6521 62.6357 58.6361 62.3297 58.625C62.0348 58.6032 61.86 58.5922 61.8057 58.5922L59.9054 58.6739C59.8615 58.6304 59.8397 58.5433 59.8397 58.4123C59.8507 58.2706 59.8779 58.1995 59.9215 58.1995C60.0527 58.1995 60.2164 58.1724 60.413 58.1178C60.6096 58.0635 60.7244 57.9925 60.7572 57.9054C60.768 57.8615 60.7737 57.818 60.7737 57.7744C60.7844 57.7309 60.7898 57.6873 60.7898 57.6435C60.7898 57.5017 60.7737 57.3383 60.7408 57.1527C60.7079 56.9567 60.6697 56.8039 60.6261 56.6947L59.889 54.6666C59.8561 54.6228 59.8232 54.601 59.7907 54.601C59.3646 54.5685 58.9496 54.5521 58.5456 54.5521C58.2618 54.5521 57.9451 54.5628 57.5955 54.5846C57.257 54.5956 56.8802 54.612 56.4652 54.6338L56.3834 54.6827L55.6788 56.4823C55.5694 56.7547 55.4933 56.9838 55.4493 57.1691C55.4168 57.3547 55.4003 57.5017 55.4003 57.611C55.4003 57.7634 55.444 57.8726 55.5315 57.9379C55.6295 58.0143 55.7882 58.0796 56.0066 58.1342C56.225 58.1778 56.3834 58.1995 56.4817 58.1995C56.5142 58.1995 56.5306 58.2652 56.5306 58.3959C56.5417 58.5268 56.536 58.6196 56.5142 58.6739L54.827 58.5922C54.521 58.5704 54.2207 58.5761 53.9258 58.6086C53.642 58.6304 53.3743 58.6521 53.1233 58.6739ZM57.9723 53.7668C58.4638 53.7668 58.9607 53.7504 59.4629 53.7179L59.5122 53.6358L58.1853 50.0209L56.7762 53.6687C56.7762 53.7122 56.7873 53.734 56.8091 53.734C57.0929 53.7451 57.3278 53.7558 57.5136 53.7668C57.7102 53.7668 57.8629 53.7668 57.9723 53.7668ZM74.4194 58.7067C72.9016 58.7067 71.5747 57.9215 70.4387 56.3514C70.3515 56.2314 70.2367 56.0679 70.0948 55.8606C69.9636 55.6535 69.7181 55.2881 69.3574 54.7648C69.1829 54.5139 69.0246 54.3065 68.8823 54.143C68.7515 53.9685 68.5931 53.8379 68.4073 53.7504C68.2328 53.6633 67.9923 53.6198 67.6866 53.6198C67.5665 53.6198 67.4682 53.6358 67.3917 53.6687C67.3263 53.7015 67.2934 53.7779 67.2934 53.8978V56.3021C67.2934 57.022 67.337 57.4964 67.4246 57.7252C67.4682 57.8126 67.5719 57.8944 67.7356 57.9707C67.9104 58.0471 68.0963 58.1071 68.2929 58.1506C68.4895 58.1835 68.6314 58.1995 68.7186 58.1995C68.7622 58.1995 68.784 58.2759 68.784 58.4287C68.784 58.5051 68.7733 58.5868 68.7515 58.6739C68.2053 58.6521 67.752 58.6304 67.3917 58.6086C67.0421 58.5868 66.7855 58.5814 66.6217 58.5922L64.6232 58.6739C64.5903 58.6414 64.5742 58.5433 64.5742 58.3798C64.5742 58.2377 64.5903 58.1671 64.6232 58.1671C64.7326 58.1671 64.8634 58.1506 65.0164 58.1178C65.1801 58.0853 65.3331 58.0471 65.475 58.0036C65.628 57.949 65.7209 57.889 65.7535 57.8233C65.83 57.7034 65.8682 57.1909 65.8682 56.286V50.1029C65.8682 49.7867 65.8575 49.5083 65.8353 49.2685C65.8246 49.0286 65.7971 48.838 65.7535 48.6959C65.7317 48.6306 65.6444 48.5706 65.4915 48.516C65.3495 48.4614 65.1912 48.4179 65.0164 48.3854C64.8527 48.3526 64.7215 48.3361 64.6232 48.3361C64.5796 48.3361 64.5578 48.2708 64.5578 48.1398C64.5578 47.9981 64.5796 47.9053 64.6232 47.8618L66.5892 47.8946C66.9059 47.9053 67.2934 47.9 67.752 47.8782C68.2107 47.8454 68.5931 47.829 68.8988 47.829C69.4886 47.829 70.0512 47.9435 70.5863 48.1727C71.1322 48.4015 71.5747 48.7398 71.9132 49.1867C72.2625 49.6339 72.4373 50.179 72.4373 50.8225C72.4373 51.2805 72.2625 51.7602 71.9132 52.262C71.5747 52.7635 71.1104 53.1508 70.5206 53.4235C70.4115 53.467 70.3787 53.5216 70.4223 53.5869C70.9574 54.7209 71.5854 55.6807 72.3064 56.4659C73.3549 57.611 74.2067 58.1835 74.8619 58.1835C74.8944 58.2488 74.9109 58.3252 74.9109 58.4123C74.9109 58.5104 74.8944 58.5922 74.8619 58.6578C74.7525 58.6903 74.6052 58.7067 74.4194 58.7067ZM68.7186 52.9163H69.1282C69.3903 52.9163 69.658 52.8292 69.9308 52.6546C70.2149 52.4801 70.4498 52.2345 70.6353 51.9183C70.8319 51.6021 70.9302 51.2369 70.9302 50.8225C70.9302 49.3066 70.1656 48.5489 68.6367 48.5489C68.1345 48.5489 67.752 48.5871 67.49 48.6634C67.3917 48.6852 67.3317 48.8651 67.3099 49.2031C67.2988 49.5304 67.2934 49.9502 67.2934 50.4627V52.4419C67.2934 52.7581 67.7685 52.9163 68.7186 52.9163ZM77.3191 58.6739C77.2755 58.6304 77.2537 58.5486 77.2537 58.4287C77.2537 58.2759 77.2755 58.1995 77.3191 58.1995C77.4174 58.1995 77.5486 58.1888 77.7123 58.1671C77.876 58.1342 78.029 58.0907 78.1709 58.0361C78.3128 57.9815 78.3947 57.9272 78.4165 57.8726C78.4605 57.7198 78.4876 57.5235 78.4987 57.2837C78.5205 57.0438 78.5312 56.7547 78.5312 56.4167V50.4952C78.5312 49.5465 78.4823 48.985 78.384 48.8105C78.3075 48.647 77.7177 48.5653 76.6145 48.5653C76.1995 48.5653 75.8775 48.6035 75.648 48.6795C75.4188 48.7452 75.244 48.8815 75.1239 49.0886C75.0038 49.2959 74.8891 49.6065 74.78 50.0209C74.7579 50.0755 74.7036 50.1029 74.616 50.1029C74.4305 50.1029 74.2993 50.0647 74.2228 49.9884L74.5341 47.6491C74.7743 47.7037 74.9874 47.7472 75.1729 47.78C75.3588 47.8129 75.5225 47.829 75.6644 47.829C76.4508 47.829 77.1443 47.84 77.7448 47.8618C78.3457 47.8836 78.848 47.8946 79.2522 47.8946C80.093 47.8946 80.814 47.8836 81.4145 47.8618C82.0261 47.84 82.5066 47.829 82.8561 47.829C82.9981 47.829 83.1618 47.8129 83.3477 47.78C83.5332 47.7472 83.7462 47.7037 83.9864 47.6491L84.2978 49.9884C84.2213 50.0647 84.0901 50.1029 83.9046 50.1029C83.817 50.1029 83.7627 50.0755 83.7409 50.0209C83.6426 49.6065 83.5278 49.2959 83.3966 49.0886C83.2765 48.8815 83.1017 48.7452 82.8726 48.6795C82.6431 48.6035 82.321 48.5653 81.906 48.5653C80.7593 48.5653 80.1584 48.647 80.1041 48.8105C80.0058 49.1485 79.9564 49.6939 79.9564 50.4463V56.3514C79.9564 56.9838 80.0058 57.491 80.1041 57.8726C80.1259 57.9161 80.2077 57.9654 80.3496 58.0197C80.4916 58.0743 80.6445 58.1178 80.8083 58.1506C80.9723 58.1835 81.0867 58.1995 81.1525 58.1995C81.1961 58.1995 81.2179 58.2816 81.2179 58.4451C81.2179 58.5104 81.2068 58.5868 81.185 58.6739C80.6392 58.6521 80.2077 58.6361 79.891 58.625C79.5743 58.6032 79.3723 58.5922 79.2848 58.5922L77.3191 58.6739ZM88.1147 58.6739C88.0708 58.6304 88.049 58.554 88.049 58.4451C88.049 58.3034 88.0708 58.2324 88.1147 58.2324C88.202 58.2324 88.3221 58.216 88.4751 58.1835C88.6388 58.1506 88.7864 58.1071 88.9173 58.0525C89.0592 57.9872 89.1414 57.9272 89.1632 57.8726C89.2068 57.6981 89.2397 57.48 89.2615 57.2183C89.2833 56.9567 89.294 56.6512 89.294 56.3021V54.2576C89.294 54.1048 89.1793 53.7997 88.9501 53.3417C88.83 53.1233 88.6005 52.7035 88.262 52.0821C87.9235 51.4604 87.4702 50.648 86.9023 49.6447C86.7278 49.3177 86.5912 49.0939 86.4929 48.974C86.4054 48.8433 86.2745 48.7177 86.0997 48.5978C85.9796 48.5107 85.7995 48.4289 85.5589 48.3526C85.3187 48.2762 85.1442 48.238 85.0349 48.238C84.9913 48.238 84.9695 48.178 84.9695 48.0581C84.9695 47.9271 84.9913 47.84 85.0349 47.7965L85.9196 47.8454C86.1269 47.8564 86.3181 47.8671 86.4929 47.8782C86.6785 47.8889 86.8479 47.8946 87.0005 47.8946C87.1317 47.8946 87.8524 47.8618 89.1632 47.7965C89.185 47.84 89.1904 47.9271 89.1793 48.0581C89.1793 48.178 89.1632 48.238 89.1303 48.238C88.9448 48.238 88.7317 48.2872 88.4915 48.3854C88.262 48.4725 88.1473 48.6088 88.1473 48.7941C88.1473 48.9033 88.2073 49.0668 88.3274 49.2849L90.1623 52.7528C90.228 52.8071 90.2824 52.7963 90.326 52.72C91.8116 50.4845 92.5541 49.1703 92.5541 48.7777C92.5541 48.6577 92.445 48.5378 92.2266 48.4179C92.0079 48.298 91.7405 48.238 91.4238 48.238C91.3801 48.238 91.3583 48.1727 91.3583 48.0417C91.3583 47.9217 91.3801 47.84 91.4238 47.7965L93.3569 47.8946C93.5317 47.9053 93.7061 47.9053 93.8809 47.8946C94.0557 47.8728 94.2305 47.8564 94.4053 47.8454C94.7657 47.8129 94.9948 47.7965 95.0931 47.7965C95.1152 47.8836 95.126 47.9653 95.126 48.0417C95.126 48.1727 95.1042 48.238 95.0606 48.238C94.973 48.238 94.8364 48.2598 94.6509 48.3033C94.4654 48.3472 94.2795 48.4072 94.094 48.4835C93.9192 48.5596 93.7937 48.647 93.7172 48.7452C93.5535 49.0068 93.3458 49.3395 93.0945 49.7428C92.8436 50.1354 92.5812 50.5609 92.3085 51.0188C92.0354 51.466 91.7787 51.8965 91.5385 52.3109C91.2983 52.7146 91.1017 53.058 90.9487 53.3417C90.7957 53.6251 90.7192 53.7997 90.7192 53.865V56.3514C90.7192 56.6894 90.7303 56.9838 90.7521 57.2348C90.7739 57.4853 90.8068 57.6981 90.8504 57.8726C90.8722 57.9161 90.9487 57.9707 91.0799 58.0361C91.2218 58.0907 91.3691 58.1396 91.5221 58.1835C91.675 58.216 91.7841 58.2324 91.8495 58.2324C91.8935 58.2324 91.9153 58.3034 91.9153 58.4451C91.9153 58.5104 91.9042 58.5868 91.8824 58.6739C91.3365 58.6521 90.9104 58.6361 90.6048 58.625C90.2988 58.6032 90.1133 58.5922 90.0475 58.5922L88.1147 58.6739ZM99.7619 58.6739C99.7293 58.6414 99.7129 58.554 99.7129 58.4123C99.7129 58.2706 99.7293 58.1995 99.7619 58.1995C99.8602 58.1995 99.9914 58.1835 100.155 58.1506C100.319 58.1071 100.472 58.0578 100.614 58.0036C100.767 57.949 100.86 57.889 100.893 57.8233C100.969 57.7034 101.007 57.1909 101.007 56.286V50.1029C101.007 49.7867 100.996 49.5083 100.974 49.2685C100.963 49.0286 100.936 48.838 100.893 48.6959C100.871 48.6306 100.783 48.5706 100.63 48.516C100.488 48.4614 100.33 48.4179 100.155 48.3854C99.9914 48.3526 99.8602 48.3361 99.7619 48.3361C99.7183 48.3361 99.6965 48.2708 99.6965 48.1398C99.6965 47.9981 99.7183 47.9053 99.7619 47.8618C100.046 47.8728 100.346 47.8836 100.663 47.8946C100.991 47.8946 101.34 47.8946 101.711 47.8946L103.088 47.8782H104.021C104.163 47.8782 104.305 47.8836 104.447 47.8946C104.6 47.9053 104.747 47.9217 104.89 47.9435C105.326 48.0199 105.736 48.1673 106.118 48.3854C106.511 48.5924 106.828 48.8758 107.068 49.236C107.32 49.5957 107.445 50.0373 107.445 50.5609C107.445 50.9424 107.32 51.3079 107.068 51.6567C106.817 51.9947 106.582 52.2292 106.364 52.3602C106.156 52.4908 105.976 52.5836 105.823 52.6382C105.736 52.671 105.709 52.7035 105.741 52.7364C105.96 52.7692 106.205 52.867 106.479 53.0308C106.752 53.1943 107.014 53.407 107.265 53.6687C107.516 53.9196 107.724 54.2084 107.887 54.5357C108.062 54.8629 108.149 55.2063 108.149 55.5661C108.149 56.1879 107.975 56.7276 107.625 57.1855C107.287 57.6434 106.806 57.9979 106.184 58.2488C105.561 58.4997 104.83 58.625 103.988 58.625H101.744L99.7619 58.6739ZM103.513 52.5236C103.863 52.5236 104.169 52.5072 104.431 52.4747C104.879 52.4309 105.25 52.2784 105.545 52.0165C105.851 51.7441 106.003 51.384 106.003 50.9371C106.003 50.1847 105.812 49.6011 105.43 49.1867C105.059 48.7616 104.502 48.5489 103.759 48.5489C103.246 48.5489 102.858 48.5871 102.596 48.6634C102.53 48.6742 102.498 48.7234 102.498 48.8105L102.432 50.4627V52.4091C102.432 52.4855 102.793 52.5236 103.513 52.5236ZM103.579 57.889C103.852 57.889 104.12 57.8672 104.382 57.8233C104.655 57.7798 104.977 57.6927 105.348 57.5617C105.72 57.4418 106.02 57.2291 106.249 56.9239C106.479 56.6076 106.593 56.215 106.593 55.746C106.593 55.2773 106.49 54.8519 106.282 54.4703C106.075 54.0884 105.758 53.7832 105.332 53.5541C104.906 53.3253 104.355 53.2107 103.677 53.2107C103.557 53.2107 103.399 53.2161 103.202 53.2271C103.005 53.2379 102.771 53.2543 102.498 53.2761C102.454 53.396 102.432 53.5759 102.432 53.8161V56.204C102.432 57.0327 102.52 57.5182 102.694 57.6599C102.869 57.8126 103.164 57.889 103.579 57.889ZM111.065 57.1691C110.039 56.1004 109.526 54.7973 109.526 53.2596C109.526 52.4965 109.662 51.7823 109.935 51.117C110.208 50.4409 110.579 49.852 111.049 49.3502C111.529 48.838 112.086 48.4397 112.72 48.1562C113.354 47.8618 114.031 47.7147 114.751 47.7147C115.472 47.7147 116.149 47.8618 116.783 48.1562C117.416 48.4397 117.973 48.838 118.453 49.3502C118.934 49.852 119.311 50.4409 119.584 51.117C119.857 51.7823 119.993 52.4965 119.993 53.2596C119.993 54.7973 119.48 56.1004 118.453 57.1691C117.755 57.9108 116.963 58.4016 116.078 58.6414C115.194 58.8923 114.309 58.8923 113.424 58.6414C112.551 58.4016 111.764 57.9108 111.065 57.1691ZM115.013 58.0853C115.712 58.0853 116.324 57.8562 116.848 57.3982C117.372 56.951 117.755 56.3949 117.995 55.7296C118.246 55.0536 118.372 54.334 118.372 53.5705C118.372 52.7089 118.23 51.8858 117.946 51.1006C117.662 50.3264 117.22 49.6828 116.619 49.1703C116.018 48.6577 115.314 48.4015 114.506 48.4015C113.818 48.4015 113.222 48.6142 112.72 49.0396C112.218 49.454 111.83 50.0048 111.557 50.6915C111.284 51.3679 111.147 52.1039 111.147 52.8998C111.147 53.7615 111.289 54.5846 111.573 55.3698C111.857 56.144 112.299 56.7929 112.9 57.3165C113.501 57.829 114.205 58.0853 115.013 58.0853ZM120.632 58.6739C120.589 58.6304 120.567 58.5486 120.567 58.4287C120.567 58.2759 120.589 58.1995 120.632 58.1995C120.763 58.1995 120.933 58.1724 121.14 58.1178C121.348 58.0635 121.49 57.9872 121.566 57.889C121.686 57.7362 121.806 57.5346 121.927 57.2837C122.058 57.0327 122.194 56.7222 122.336 56.3514L125.187 49.0396C125.252 48.8758 125.29 48.7616 125.301 48.6959C125.323 48.6306 125.339 48.576 125.35 48.5325C125.372 48.4778 125.41 48.3907 125.465 48.2708C125.542 48.1181 125.618 47.9981 125.694 47.911C125.771 47.8236 125.896 47.78 126.071 47.78L126.219 47.829L129.495 56.4659C129.593 56.7165 129.681 56.9403 129.757 57.1366C129.844 57.3329 129.915 57.5017 129.97 57.6435C130.014 57.7527 130.106 57.8508 130.249 57.9379C130.401 58.0143 130.554 58.0796 130.707 58.1342C130.871 58.1778 130.996 58.1995 131.084 58.1995C131.128 58.1995 131.149 58.3034 131.149 58.5104C131.149 58.5322 131.144 58.5597 131.133 58.5922C131.133 58.6139 131.128 58.6414 131.117 58.6739C130.571 58.6521 130.145 58.6361 129.839 58.625C129.544 58.6032 129.369 58.5922 129.315 58.5922L127.414 58.6739C127.371 58.6304 127.349 58.5433 127.349 58.4123C127.36 58.2706 127.387 58.1995 127.431 58.1995C127.562 58.1995 127.726 58.1724 127.922 58.1178C128.119 58.0635 128.234 57.9925 128.266 57.9054C128.277 57.8615 128.283 57.818 128.283 57.7744C128.294 57.7309 128.299 57.6873 128.299 57.6435C128.299 57.5017 128.283 57.3383 128.25 57.1527C128.217 56.9567 128.179 56.8039 128.135 56.6947L127.398 54.6666C127.365 54.6228 127.332 54.601 127.3 54.601C126.874 54.5685 126.459 54.5521 126.055 54.5521C125.771 54.5521 125.454 54.5628 125.105 54.5846C124.766 54.5956 124.389 54.612 123.974 54.6338L123.892 54.6827L123.188 56.4823C123.079 56.7547 123.002 56.9838 122.959 57.1691C122.926 57.3547 122.91 57.5017 122.91 57.611C122.91 57.7634 122.953 57.8726 123.04 57.9379C123.139 58.0143 123.297 58.0796 123.515 58.1342C123.734 58.1778 123.892 58.1995 123.991 58.1995C124.023 58.1995 124.04 58.2652 124.04 58.3959C124.051 58.5268 124.045 58.6196 124.023 58.6739L122.336 58.5922C122.03 58.5704 121.73 58.5761 121.435 58.6086C121.151 58.6304 120.883 58.6521 120.632 58.6739ZM125.481 53.7668C125.973 53.7668 126.47 53.7504 126.972 53.7179L127.021 53.6358L125.694 50.0209L124.285 53.6687C124.285 53.7122 124.297 53.734 124.318 53.734C124.602 53.7451 124.837 53.7558 125.023 53.7668C125.219 53.7668 125.372 53.7668 125.481 53.7668ZM133.525 58.6739C133.481 58.6304 133.459 58.5486 133.459 58.4287C133.459 58.2759 133.481 58.1995 133.525 58.1995C133.623 58.1995 133.754 58.1888 133.918 58.1671C134.082 58.1342 134.235 58.0907 134.377 58.0361C134.518 57.9815 134.601 57.9272 134.622 57.8726C134.666 57.7198 134.693 57.5235 134.704 57.2837C134.726 57.0438 134.737 56.7547 134.737 56.4167V50.4952C134.737 49.5465 134.688 48.985 134.59 48.8105C134.513 48.647 133.923 48.5653 132.82 48.5653C132.405 48.5653 132.083 48.6035 131.854 48.6795C131.624 48.7452 131.45 48.8815 131.33 49.0886C131.209 49.2959 131.095 49.6065 130.986 50.0209C130.964 50.0755 130.909 50.1029 130.822 50.1029C130.636 50.1029 130.505 50.0647 130.429 49.9884L130.74 47.6491C130.98 47.7037 131.193 47.7472 131.379 47.78C131.564 47.8129 131.728 47.829 131.87 47.829C132.656 47.829 133.35 47.84 133.951 47.8618C134.551 47.8836 135.054 47.8946 135.458 47.8946C136.299 47.8946 137.02 47.8836 137.62 47.8618C138.232 47.84 138.712 47.829 139.062 47.829C139.204 47.829 139.368 47.8129 139.553 47.78C139.739 47.7472 139.952 47.7037 140.192 47.6491L140.503 49.9884C140.427 50.0647 140.296 50.1029 140.11 50.1029C140.023 50.1029 139.968 50.0755 139.946 50.0209C139.848 49.6065 139.733 49.2959 139.602 49.0886C139.482 48.8815 139.308 48.7452 139.078 48.6795C138.849 48.6035 138.527 48.5653 138.112 48.5653C136.965 48.5653 136.364 48.647 136.31 48.8105C136.211 49.1485 136.162 49.6939 136.162 50.4463V56.3514C136.162 56.9838 136.211 57.491 136.31 57.8726C136.331 57.9161 136.413 57.9654 136.555 58.0197C136.698 58.0743 136.85 58.1178 137.014 58.1506C137.178 58.1835 137.293 58.1995 137.358 58.1995C137.402 58.1995 137.424 58.2816 137.424 58.4451C137.424 58.5104 137.413 58.5868 137.391 58.6739C136.845 58.6521 136.413 58.6361 136.097 58.625C135.78 58.6032 135.578 58.5922 135.491 58.5922L133.525 58.6739Z" fill="black"/>
</svg>
